<svg xmlns="http://www.w3.org/2000/svg" viewBox="0 0 512 512" width="100%" height="100%">
  <rect width="512" height="512" rx="112" fill="#081611"/>
  <rect x="14" y="14" width="484" height="484" rx="100" fill="none" stroke="#10b981" stroke-width="14" stroke-opacity="0.9"/>
  <g id="icon-layer-bsn" stroke-linecap="round" stroke-linejoin="round">
    <path d="M 256,92 L 350,146 L 350,200 L 290,166 L 256,146 Z" fill="#34d399" stroke="#10b981" stroke-width="6"/>
    <path d="M 350,200 L 350,254 L 256,308 L 256,248 L 290,230 Z" fill="#10b981" stroke="#059669" stroke-width="6"/>
    <path d="M 256,308 L 162,254 L 162,146 L 222,180 L 222,238 Z" fill="#059669" stroke="#047857" stroke-width="6"/>
    <path d="M 162,146 L 256,92 L 256,146 L 210,172 Z" fill="#6ee7b7" stroke="#10b981" stroke-width="6" opacity="0.95"/>
    <polygon points="256,186 278,198 278,222 256,234 234,222 234,198" fill="#081611" stroke="#34d399" stroke-width="4"/>
  </g>
  <rect x="186" y="380" width="140" height="64" rx="16" fill="#0e2920" stroke="#10b981" stroke-width="6"/>
  <text x="256" y="425" font-family="-apple-system, BlinkMacSystemFont, 'Segoe UI', Roboto, monospace" font-size="34" font-weight="900" fill="#a7f3d0" text-anchor="middle" letter-spacing="4">BSN</text>
</svg>
