<svg xmlns="http://www.w3.org/2000/svg" viewBox="0 0 512 512" width="100%" height="100%">
  <rect width="512" height="512" rx="112" fill="#180f07"/>
  <rect x="14" y="14" width="484" height="484" rx="100" fill="none" stroke="#f97316" stroke-width="14" stroke-opacity="0.9"/>
  <g id="icon-layer-hbm" stroke-linecap="round" stroke-linejoin="round">
    <circle cx="256" cy="200" r="95" fill="none" stroke="#f97316" stroke-width="6" stroke-opacity="0.35"/>
    <circle cx="256" cy="200" r="55" fill="none" stroke="#f97316" stroke-width="8" stroke-dasharray="8 8"/>
    <circle cx="256" cy="200" r="14" fill="#fb923c"/>
    <line x1="140" y1="200" x2="372" y2="200" stroke="#f97316" stroke-width="8"/>
    <line x1="256" y1="85" x2="256" y2="315" stroke="#f97316" stroke-width="8"/>
    <path d="M 186,140 L 186,110 Q 186,95 206,95 L 226,95" fill="none" stroke="#fdba74" stroke-width="8"/>
    <circle cx="186" cy="145" r="7" fill="#fdba74"/>
    <path d="M 326,260 L 326,290 Q 326,305 306,305 L 286,305" fill="none" stroke="#fdba74" stroke-width="8"/>
    <circle cx="326" cy="255" r="7" fill="#fdba74"/>
    <line x1="161" y1="105" x2="161" y2="135" stroke="#fb923c" stroke-width="6"/>
    <line x1="351" y1="265" x2="351" y2="295" stroke="#fb923c" stroke-width="6"/>
  </g>
  <rect x="186" y="380" width="140" height="64" rx="16" fill="#2c1608" stroke="#f97316" stroke-width="6"/>
  <text x="256" y="425" font-family="-apple-system, BlinkMacSystemFont, 'Segoe UI', Roboto, monospace" font-size="34" font-weight="900" fill="#fed7aa" text-anchor="middle" letter-spacing="4">HBM</text>
</svg>
