<svg xmlns="http://www.w3.org/2000/svg" viewBox="0 0 512 512" width="100%" height="100%">
  <rect width="512" height="512" rx="112" fill="#081418"/>
  <rect x="14" y="14" width="484" height="484" rx="100" fill="none" stroke="#06b6d4" stroke-width="14" stroke-opacity="0.9"/>
  <g id="icon-layer" stroke-linecap="round" stroke-linejoin="round">
    <rect x="156" y="100" width="200" height="220" rx="18" fill="none" stroke="#0e7490" stroke-width="6" stroke-dasharray="12 12"/>
    <line x1="256" y1="90" x2="256" y2="330" stroke="#083344" stroke-width="10"/>
    <path d="M 380,145 L 210,145 L 245,120" fill="none" stroke="#22d3ee" stroke-width="10"/>
    <circle cx="380" cy="145" r="8" fill="#67e8f9"/>
    <path d="M 132,275 L 302,275 L 267,300" fill="none" stroke="#06b6d4" stroke-width="10"/>
    <circle cx="132" cy="275" r="8" fill="#22d3ee"/>
    <rect x="175" y="190" width="38" height="40" rx="8" fill="#155e75" stroke="#67e8f9" stroke-width="5"/>
    <line x1="184" y1="210" x2="204" y2="210" stroke="#cffafe" stroke-width="4"/>
    <rect x="237" y="190" width="38" height="40" rx="8" fill="#0e7490" stroke="#22d3ee" stroke-width="5"/>
    <line x1="246" y1="210" x2="266" y2="210" stroke="#cffafe" stroke-width="4"/>
    <rect x="299" y="190" width="38" height="40" rx="8" fill="#155e75" stroke="#67e8f9" stroke-width="5"/>
    <line x1="308" y1="210" x2="328" y2="210" stroke="#cffafe" stroke-width="4"/>
  </g>
  <rect x="186" y="380" width="140" height="64" rx="16" fill="#0c2530" stroke="#06b6d4" stroke-width="6"/>
  <text x="256" y="425" font-family="-apple-system, BlinkMacSystemFont, 'Segoe UI', Roboto, monospace" font-size="34" font-weight="900" fill="#cffafe" text-anchor="middle" letter-spacing="4">KPP</text>
</svg>
