<svg xmlns="http://www.w3.org/2000/svg" viewBox="0 0 512 512" width="100%" height="100%">
  <rect width="512" height="512" rx="112" fill="#171206"/>
  <rect x="14" y="14" width="484" height="484" rx="100" fill="none" stroke="#f59e0b" stroke-width="14" stroke-opacity="0.9"/>
  <g id="icon-layer-trc" stroke-linecap="round" stroke-linejoin="round">
    <path d="M 175,130 L 140,130 L 140,290 L 175,290" fill="none" stroke="#f59e0b" stroke-width="12"/>
    <path d="M 337,130 L 372,130 L 372,290 L 337,290" fill="none" stroke="#f59e0b" stroke-width="12"/>
    <circle cx="256" cy="210" r="64" fill="none" stroke="#78350f" stroke-width="8" stroke-dasharray="12 12"/>
    <circle cx="256" cy="146" r="10" fill="#22c55e" stroke="#fef08a" stroke-width="3"/>
    <circle cx="317" cy="190" r="10" fill="#ef4444" stroke="#fef08a" stroke-width="3"/>
    <circle cx="294" cy="262" r="10" fill="#38bdf8" stroke="#fef08a" stroke-width="3"/>
    <circle cx="218" cy="262" r="10" fill="#78350f" stroke="#fef08a" stroke-width="3"/>
    <circle cx="195" cy="190" r="10" fill="#94a3b8" stroke="#fef08a" stroke-width="3"/>
    <line x1="256" y1="210" x2="256" y2="158" stroke="#fef08a" stroke-width="6"/>
    <circle cx="256" cy="210" r="12" fill="#f59e0b"/>
    <circle cx="256" cy="210" r="4" fill="#171206"/>
  </g>
  <rect x="186" y="380" width="140" height="64" rx="16" fill="#291c06" stroke="#f59e0b" stroke-width="6"/>
  <text x="256" y="425" font-family="-apple-system, BlinkMacSystemFont, 'Segoe UI', Roboto, monospace" font-size="34" font-weight="900" fill="#fde68a" text-anchor="middle" letter-spacing="4">TRC</text>
</svg>
